<svg xmlns="http://www.w3.org/2000/svg" width="200" height="200" fill="none">
  <path
    fill-rule="evenodd"
    fill="#38485D"
    d="M95.01 0C42.538 0 0 42.522 0 95.01c0 8.344 1.184 16.384 3.211 24.11 1.797 1.386 3.8 2.185 5.842 2.185 3.151 0 6.166-1.727 8.541-4.854L47.5 76.903c4.932-6.564 11.975-10.308 19.266-10.308 7.299 0 14.337 3.745 19.285 10.308l28.757 38.028 1.235 1.52c2.375 3.119 5.391 4.831 8.502 4.854 3.103-.023 6.124-1.743 8.484-4.854l1.272-1.52 28.747-38.028c4.94-6.564 11.975-10.308 19.266-10.308 1.164 0 2.326.13 3.459.304C173.786 28.155 137.688 0 95.01 0zm31.739 40.47h-.504c-.165 0-.329.007-.493.019-.165.012-.33.028-.495.047-.164.02-.321.048-.484.076-.163.029-.333.06-.494.096-.161.036-.316.079-.475.123-.159.044-.318.09-.475.142-.157.053-.311.112-.465.172a8.918 8.918 0 00-.903.408c-.147.075-.294.146-.437.228-.143.082-.288.177-.428.266-.138.09-.273.18-.408.276-.135.096-.269.191-.399.294-.13.103-.256.214-.38.323a9.186 9.186 0 00-1.036 1.064 10.49 10.49 0 00-.313.39c-.1.131-.201.262-.294.398a9.876 9.876 0 00-.513.846c-.08.145-.157.288-.229.437-.071.149-.135.304-.199.456-.064.152-.133.3-.19.456-.057.155-.103.317-.152.475a9.84 9.84 0 00-.133.475 10.1 10.1 0 00-.114.485c-.033.162-.061.33-.086.494-.024.163-.049.32-.066.484-.017.165-.038.329-.038.494 0 .165-.01.338-.01.504 0 .165.01.328.01.493 0 .166.021.33.038.495.017.164.042.33.066.493.025.164.053.323.086.485.033.162.073.324.114.485.041.16.084.317.133.475.049.157.095.32.152.474.057.156.126.304.19.456.064.153.128.308.199.457.072.148.149.291.229.437.079.145.16.286.246.427.087.141.173.281.267.418.093.137.194.277.294.408.1.132.207.254.313.38.107.127.211.26.324.38.112.122.232.237.351.352.119.115.237.223.361.333.124.109.25.22.38.323.13.102.264.198.399.294.135.096.27.196.408.285a10.999 10.999 0 00.865.494c.147.075.296.141.447.209.15.068.301.13.456.19.154.06.308.119.465.171.157.052.316.098.475.143.159.044.314.087.475.123.161.036.331.067.494.095.163.028.32.056.484.076.165.02.33.036.495.047.164.012.328.02.493.02h.504c.16 0 .316-.007.475-.02.159-.012.317-.037.475-.056.158-.02.318-.04.475-.067.157-.027.31-.06.465-.095.156-.035.312-.072.466-.114.154-.042.304-.093.456-.142a10.14 10.14 0 00.893-.343c.146-.063.294-.128.437-.199.143-.071.288-.15.427-.228a9.17 9.17 0 00.409-.237 10.446 10.446 0 00.789-.551c.126-.098.248-.192.37-.295.122-.103.235-.214.352-.323.116-.109.23-.218.341-.333.112-.114.227-.231.333-.351a9.667 9.667 0 00.865-1.14c.087-.134.175-.27.256-.409a9.756 9.756 0 00.627-1.282c.06-.148.118-.296.171-.447.053-.15.107-.303.152-.456a12.255 12.255 0 00.228-.93c.031-.157.053-.318.076-.476.023-.157.042-.316.057-.475.015-.158.038-.315.038-.474 0-.16.009-.316.009-.475 0-.16-.009-.326-.009-.485 0-.16-.023-.316-.038-.475a9.507 9.507 0 00-.057-.475c-.023-.158-.045-.318-.076-.475a10.53 10.53 0 00-.228-.922c-.045-.153-.099-.305-.152-.456-.053-.15-.111-.298-.171-.446a9.646 9.646 0 00-1.444-2.47c-.1-.124-.198-.25-.304-.37a9.686 9.686 0 00-.333-.352 10.083 10.083 0 00-.341-.333c-.117-.108-.23-.22-.352-.323a10.92 10.92 0 00-1.159-.846 9.17 9.17 0 00-.409-.236 9.91 9.91 0 00-.427-.229c-.143-.07-.291-.135-.437-.199a9.555 9.555 0 00-.893-.342c-.152-.05-.302-.1-.456-.142a9.765 9.765 0 00-.466-.114 9.57 9.57 0 00-.465-.096c-.157-.027-.317-.046-.475-.066a9.665 9.665 0 00-.475-.047c-.159-.013-.315-.029-.475-.029z"
  />
  <path
    fill-rule="evenodd"
    fill="#52B783"
    d="M182.305 80.874c-3.135 0-6.158 1.749-8.541 4.892l-29.886 39.53c-4.948 6.547-11.978 10.298-19.286 10.298h-.113c-7.316 0-14.346-3.751-19.286-10.298l-29.886-39.53c-2.376-3.143-5.39-4.892-8.541-4.892-3.127 0-6.181 1.749-8.54 4.892l-29.897 39.53c-4.908 6.491-11.878 10.242-19.114 10.298C24.447 167.719 57.087 190 95 190c52.464 0 95-42.527 95-94.99a95.096 95.096 0 00-.684-10.945c-2.089-2.058-4.509-3.191-7.011-3.191z"
  />
</svg>
